# xmcd
# 
# Track frame offsets:
#     150
#     16884
#     31657
#     45336
#     61968
#     76082
#     88084
#     103182
#     119424
#     136982
#     151588
#     177095
#     193740
# 
# Disc length: 2698
# 
# Revision: 3
# Processed by: cddbd v1.5.2PL0 Copyright (c) Steve Scherf et al.
# Submitted via: fre:ac v1.0.31
# 
DISCID=950a880d
DTITLE=Peter Mulvey - Letters From A Flying Machine
DYEAR=2009
DGENRE=American Folk
TTITLE0=Kids in the Square
TTITLE1=Some People
TTITLE2=Letter from a Flying Machine
TTITLE3=Windshield
TTITLE4=What's Keeping Erica?
TTITLE5=Plus the Many Inevitable Fragments
TTITLE6=Dynamite Bill
TTITLE7=Shoulderbirds (You Know Me)
TTITLE8=Bears
TTITLE9=Mailman
TTITLE10=Vlad the Astrophysicist
TTITLE11=On a Wing and a Prayer
TTITLE12=Coda:  Love Is Here to Stay
EXTD=
EXTT0=
EXTT1=
EXTT2=
EXTT3=
EXTT4=
EXTT5=
EXTT6=
EXTT7=
EXTT8=
EXTT9=
EXTT10=
EXTT11=
EXTT12=
PLAYORDER=
